<svg width="96" height="24" viewBox="0 0 96 24" fill="none" xmlns="http://www.w3.org/2000/svg">
<g clip-path="url(#clip0_672_649)">
<path d="M21.7996 3.24946C21.8326 2.5549 22.1337 1.90022 22.6395 1.42305C23.1453 0.94589 23.8164 0.683417 24.5117 0.690827H29.501C35.13 0.690827 38.84 3.24946 38.84 8.36673C38.8512 9.94995 38.3338 11.4917 37.3698 12.7476C36.4058 14.0036 35.0504 14.902 33.5181 15.3007L36.3582 18.9339C36.6696 19.2799 36.8807 19.7044 36.9687 20.1615C37.0568 20.6186 37.0185 21.091 36.8579 21.528C36.6973 21.9649 36.4206 22.3498 36.0575 22.6411C35.6945 22.9324 35.2588 23.1192 34.7974 23.1812C34.286 23.3054 33.7487 23.2689 33.2587 23.0766C32.7688 22.8843 32.3501 22.5456 32.0597 22.1066L27.8123 15.9659H27.6332V20.4691C27.6332 21.2427 27.3259 21.9846 26.7789 22.5316C26.2319 23.0786 25.49 23.3859 24.7164 23.3859C23.9428 23.3859 23.2009 23.0786 22.6539 22.5316C22.1069 21.9846 21.7996 21.2427 21.7996 20.4691V3.24946ZM29.4755 11.4371C31.6759 11.4371 33.0575 10.4392 33.0575 8.62261C33.0575 6.80598 31.5991 5.8081 29.501 5.8081H27.71V11.4371H29.4755Z" fill="#319CEA"/>
<path d="M12.1535 18.7549C13.1281 18.758 14.0906 18.5392 14.9681 18.1152V14.0214C14.9667 13.4559 15.1668 12.9084 15.5326 12.477C15.8983 12.0457 16.4057 11.7587 16.9638 11.6675H17.4499C17.7946 11.6034 18.1491 11.6162 18.4882 11.7051C18.8274 11.794 19.1426 11.9567 19.4115 12.1816C19.6805 12.4065 19.8963 12.6881 20.0438 13.0061C20.1912 13.3241 20.2666 13.6709 20.2644 14.0214V20.3924C20.2703 20.7523 20.1811 21.1074 20.0059 21.4219C19.8307 21.7363 19.5757 21.999 19.2665 22.1835C17.0715 23.4651 14.567 24.12 12.0256 24.0769C10.4351 24.1264 8.85139 23.85 7.37168 23.2648C5.89196 22.6796 4.54757 21.798 3.42121 20.674C2.29484 19.55 1.41027 18.2075 0.821928 16.7291C0.233581 15.2506 -0.0461122 13.6674 2.25469e-05 12.0768C-0.038851 10.486 0.246694 8.90395 0.839223 7.42708C1.43175 5.95022 2.31886 4.60952 3.44647 3.4867C4.57407 2.36389 5.91854 1.48249 7.39791 0.89625C8.87729 0.31001 10.4606 0.0312004 12.0512 0.076843C14.0054 0.0551988 15.9445 0.420416 17.757 1.15147C18.1969 1.33387 18.5728 1.6428 18.837 2.0391C19.1012 2.43539 19.2418 2.9012 19.241 3.37749V3.68453C19.238 4.06693 19.1438 4.4431 18.9663 4.78183C18.7888 5.12057 18.5331 5.41208 18.2204 5.63222C17.9077 5.85236 17.5471 5.99477 17.1683 6.04762C16.7896 6.10047 16.4037 6.06225 16.0427 5.93612C14.9937 5.63806 13.9092 5.48314 12.8188 5.47556C11.9104 5.42217 11.0009 5.55788 10.1477 5.8741C9.2945 6.19032 8.51622 6.68016 7.86208 7.31265C7.20794 7.94515 6.6922 8.70653 6.34746 9.54861C6.00272 10.3907 5.83647 11.2951 5.85928 12.2048C5.82112 13.0535 5.95592 13.9012 6.25544 14.6962C6.55495 15.4913 7.01296 16.2172 7.60163 16.8298C8.19031 17.4424 8.89736 17.9289 9.67986 18.2598C10.4624 18.5908 11.304 18.7592 12.1535 18.7549Z" fill="#319CEA"/>
<path d="M42.1919 0.562988H53.1173C53.744 0.562952 54.3454 0.810134 54.7909 1.25086C55.2364 1.69159 55.4901 2.29028 55.4969 2.91693V3.37748C55.4901 4.00413 55.2364 4.60282 54.7909 5.04355C54.3454 5.48428 53.744 5.73146 53.1173 5.73142H46.2346V9.5438H52.2474C52.8717 9.5438 53.4704 9.79179 53.9119 10.2332C54.3533 10.6747 54.6013 11.2734 54.6013 11.8977C54.6013 12.5244 54.3542 13.1258 53.9134 13.5713C53.4727 14.0169 52.874 14.2705 52.2474 14.2773H46.2346V18.2687H53.1173C53.744 18.2687 54.3454 18.5159 54.7909 18.9566C55.2364 19.3973 55.4901 19.996 55.4969 20.6227V21.0832C55.4901 21.7099 55.2364 22.3086 54.7909 22.7493C54.3454 23.19 53.744 23.4372 53.1173 23.4372H42.1919C41.9567 23.4372 41.7238 23.3909 41.5065 23.3008C41.2892 23.2108 41.0918 23.0789 40.9255 22.9126C40.7592 22.7463 40.6272 22.5488 40.5372 22.3315C40.4472 22.1142 40.4009 21.8813 40.4009 21.6461V2.35403C40.4009 1.87901 40.5896 1.42346 40.9255 1.08757C41.2614 0.751686 41.7169 0.562988 42.1919 0.562988Z" fill="#319CEA"/>
<path d="M72.307 21.5694L71.1812 18.3711H63.0959L62.0468 21.5438C61.8582 22.0788 61.5137 22.5452 61.0577 22.8826C60.6017 23.2201 60.055 23.4133 59.4882 23.4372C59.0419 23.4242 58.6051 23.3051 58.2139 23.0899C57.8227 22.8748 57.4883 22.5696 57.2383 22.1996C56.9883 21.8297 56.83 21.4055 56.7763 20.9623C56.7226 20.519 56.7751 20.0694 56.9296 19.6504L62.8144 3.65895C63.15 2.74896 63.7569 1.96399 64.5532 1.41026C65.3495 0.856537 66.2966 0.560784 67.2665 0.563001H67.3944C68.3643 0.560784 69.3114 0.856537 70.1077 1.41026C70.9039 1.96399 71.5109 2.74896 71.8464 3.65895L77.808 19.6504C77.9686 20.0692 78.0257 20.5205 77.9747 20.9661C77.9236 21.4117 77.7659 21.8384 77.5148 22.21C77.2637 22.5817 76.9266 22.8873 76.5323 23.1009C76.1379 23.3145 75.6979 23.4299 75.2494 23.4372C74.6197 23.5063 73.9853 23.359 73.4505 23.0195C72.9157 22.68 72.5124 22.1686 72.307 21.5694ZM69.6204 13.6632L67.0618 6.49903L64.5031 13.6632H69.6204Z" fill="#319CEA"/>
<path d="M80.4179 5.80819H76.5032C75.8246 5.80819 75.1738 5.53862 74.694 5.05878C74.2141 4.57895 73.9446 3.92815 73.9446 3.24955C73.9446 2.57096 74.2141 1.92018 74.694 1.44034C75.1738 0.960505 75.8246 0.690918 76.5032 0.690918H90.1152C90.7937 0.690918 91.4445 0.960505 91.9244 1.44034C92.4042 1.92018 92.6738 2.57096 92.6738 3.24955C92.6738 3.92815 92.4042 4.57895 91.9244 5.05878C91.4445 5.53862 90.7937 5.80819 90.1152 5.80819H86.226V20.8274C86.226 21.506 85.9564 22.1568 85.4766 22.6366C84.9968 23.1165 84.346 23.386 83.6674 23.386H83.1301C82.4515 23.386 81.8007 23.1165 81.3208 22.6366C80.841 22.1568 80.5714 21.506 80.5714 20.8274L80.4179 5.80819Z" fill="#319CEA"/>
</g>
<defs>
<clipPath id="clip0_672_649">
<rect width="92.725" height="24" fill="white"/>
</clipPath>
</defs>
</svg>
