<svg width="230" height="90" viewBox="0 0 269 110" fill="none" xmlns="http://www.w3.org/2000/svg">
<path d="M39.0638 18.152V12.968H33.2078V0.919998H26.8718V32.888H33.2078V18.152H39.0638ZM24.0398 24.248L23.4158 19.256C18.6638 20.264 14.2478 20.6 6.37575 20.6V9.464H19.8638V4.424H0.0877501V25.688H3.78375C13.6238 25.688 18.6638 25.4 24.0398 24.248ZM34.7918 39.32H11.0318V29.528H4.69575V44.36H34.7918V39.32ZM77.882 20.12L80.282 15.176C70.538 13.88 65.546 8.264 65.546 3.464V2.072H59.018V3.464C59.018 8.408 54.074 13.976 44.33 15.272L46.682 20.264C54.218 19.064 59.45 15.752 62.33 11.144C65.21 15.608 70.346 18.968 77.882 20.12ZM82.346 27.656V22.664H42.266V27.656H59.69V35.192H66.026V27.656H82.346ZM77.882 39.32H53.258V31.448H46.922V44.36H77.882V39.32ZM120.924 23.432H127.26V18.2H120.924V0.919998H114.588V45.128H120.924V23.432ZM111.708 7.448H102.108V1.688H95.7723V7.448H85.9803V12.488H111.708V7.448ZM98.9883 14.984C92.5563 14.984 87.7563 19.352 87.7563 25.496C87.7563 31.784 92.5563 36.104 98.9883 36.104C105.372 36.104 110.124 31.784 110.124 25.496C110.124 19.352 105.372 14.984 98.9883 14.984ZM98.9883 30.92C95.9163 30.92 93.8043 29 93.8043 25.544C93.8043 22.088 95.9163 20.12 98.9883 20.12C102.06 20.12 104.124 22.184 104.124 25.496C104.124 28.952 102.06 30.92 98.9883 30.92ZM158.207 29.384L164.543 30.104C166.319 20.744 166.319 14.456 166.319 8.936V4.712H134.207V9.752H159.983C159.983 14.888 159.887 21.08 158.207 29.384ZM170.159 39.8V34.712H150.623V19.496H144.287V34.712H130.175V39.8H170.159ZM221.666 45.08V0.919998H215.33V45.08H221.666ZM209.906 20.36L212.738 15.416C205.394 13.88 202.37 9.608 202.37 5V2.744H195.842V5C195.842 9.8 192.722 14.504 185.234 16.28L188.162 21.224C193.586 19.832 197.186 16.856 199.154 13.016C201.218 16.52 204.674 19.16 209.906 20.36ZM213.218 27.032L212.834 22.472C203.426 23.864 192.722 23.912 184.802 23.912L185.57 29.048C188.69 29.048 192.194 29.048 196.034 28.856V43.784H202.37V28.472C206.018 28.136 209.57 27.752 213.218 27.032ZM248.532 20.072C258.132 20.072 264.42 16.52 264.42 10.904C264.42 5.336 258.132 1.736 248.532 1.736C239.076 1.736 232.644 5.336 232.644 10.904C232.644 16.52 239.076 20.072 248.532 20.072ZM248.532 6.776C254.148 6.776 257.604 8.168 257.604 10.904C257.604 13.64 254.148 15.032 248.532 15.032C242.916 15.032 239.508 13.64 239.508 10.904C239.508 8.168 242.916 6.776 248.532 6.776ZM268.596 27.416V22.376H228.564V27.416H245.7V35H252.18V27.416H268.596ZM264.228 39.32H239.652V31.112H233.22V44.36H264.228V39.32ZM64.874 78.12H72.938V90.84H79.274V64.92H72.938V72.984H64.874V78.12ZM65.594 89.448L68.906 84.456C61.85 82.152 59.018 76.824 59.018 70.872V67.224H52.586V71.16C52.586 77.304 49.466 83.208 41.93 85.656L45.242 90.744C50.474 88.968 53.978 85.512 55.946 80.904C57.818 84.936 60.938 87.864 65.594 89.448ZM64.346 91.944C54.938 91.944 49.178 95.064 49.178 100.584C49.178 105.96 54.938 109.128 64.346 109.128C73.706 109.128 79.466 105.96 79.466 100.584C79.466 95.064 73.706 91.944 64.346 91.944ZM64.346 104.28C58.442 104.28 55.514 103.032 55.514 100.584C55.514 98.088 58.442 96.84 64.346 96.84C70.202 96.84 73.13 98.088 73.13 100.584C73.13 103.032 70.202 104.28 64.346 104.28ZM123.18 91.224V64.968H116.844V75.48H110.316V80.568H116.844V91.224H123.18ZM109.788 90.024L112.86 85.08C106.044 82.776 103.02 77.448 102.876 72.408H111.468V67.368H87.7083V72.408H96.3963C96.2523 77.928 93.1323 83.448 85.9803 85.896L89.1963 90.888C94.3803 89.208 97.7883 85.752 99.7563 81.336C101.628 85.368 104.94 88.44 109.788 90.024ZM123.18 93.192H93.0363V98.232H116.844V109.176H123.18V93.192ZM181.312 83.592V78.36H176.032V64.872H169.696V97.992H176.032V83.592H181.312ZM158.176 83.16L164.368 83.88C165.376 78.264 165.376 73.944 165.376 70.872V68.136H142.672V73.176H159.136C159.088 75.864 158.896 78.936 158.176 83.16ZM167.68 90.168L167.296 85.656C163.072 86.232 158.8 86.568 154.384 86.76V78.408H148.192V87C145.312 87.048 142.576 87.048 140.128 87.048L140.704 92.088C148.24 92.088 158.608 91.848 167.68 90.168ZM177.424 103.32H152.896V95.064H146.56V108.36H177.424V103.32ZM221.426 109.224V64.872H215.09V109.224H221.426ZM193.49 93.72V85.752H207.842V68.664H186.962V73.704H201.362V80.76H187.01V98.952H190.994C199.058 98.952 205.394 98.712 212.69 97.416L212.018 92.28C205.826 93.288 200.21 93.72 193.49 93.72Z" fill="black"/>
</svg>
